<?xml version="1.0" standalone="no"?>
<!DOCTYPE svg PUBLIC "-//W3C//DTD SVG 20010904//EN"
 "http://www.w3.org/TR/2001/REC-SVG-20010904/DTD/svg10.dtd">
<svg version="1.0" xmlns="http://www.w3.org/2000/svg"
 width="700.000000pt" height="700.000000pt" viewBox="0 0 700.000000 700.000000"
 preserveAspectRatio="xMidYMid meet">
<metadata>
Created by potrace 1.14, written by Peter Selinger 2001-2017
</metadata>
<g transform="translate(0.000000,700.000000) scale(0.100000,-0.100000)"
fill="#000000" stroke="none">
<path d="M3075 6475 c-225 -129 -418 -239 -429 -245 -17 -11 -332 -191 -403
-232 -70 -39 -106 -60 -348 -198 -137 -78 -270 -154 -295 -168 -25 -14 -216
-123 -425 -242 -209 -119 -407 -232 -440 -250 -33 -18 -71 -40 -85 -49 -14 -9
-34 -21 -45 -27 -19 -11 -20 -22 -21 -203 -1 -131 3 -191 10 -192 44 -4 5810
-3 5815 1 4 3 7 90 7 195 l-1 189 -340 194 c-187 107 -518 295 -735 419 -217
124 -415 237 -440 251 -46 26 -483 275 -1066 608 -177 101 -328 184 -335 183
-8 0 -198 -106 -424 -234z m974 -576 c289 -166 551 -315 581 -331 30 -17 60
-34 65 -38 6 -4 30 -19 55 -32 25 -14 95 -54 155 -88 61 -35 119 -68 130 -74
85 -47 364 -208 378 -218 15 -11 -313 -13 -1913 -13 -1843 -1 -1930 0 -1908
17 13 10 27 18 31 18 4 0 33 16 63 35 30 19 56 35 58 35 2 0 164 92 361 205
197 113 359 205 361 205 2 0 28 16 58 35 30 19 57 35 59 35 2 0 208 117 458
260 250 143 460 257 468 255 8 -3 251 -141 540 -306z"/>
<path d="M1549 4223 c-1 -5 -2 -559 -3 -1232 -1 -1140 0 -1224 16 -1230 13 -5
329 -6 408 -2 13 1 15 145 15 1236 l0 1235 -217 0 c-120 0 -219 -3 -219 -7z"/>
<path d="M3310 2995 c0 -981 3 -1235 13 -1236 15 -1 398 -1 414 0 10 1 12 267
12 1236 l0 1235 -220 0 -219 0 0 -1235z"/>
<path d="M5019 4228 c-6 -19 -2 -2461 5 -2465 7 -5 355 -8 416 -4 13 1 15 143
14 1224 -1 672 -2 1228 -3 1235 -1 9 -51 12 -216 12 -118 0 -215 -1 -216 -2z"/>
<path d="M584 1103 l1 -218 2916 -1 2916 -1 -1 216 -1 216 -2916 3 -2915 2 0
-217z"/>
</g>
</svg>
